<?xml version="1.0" standalone="no"?>
<!DOCTYPE svg PUBLIC "-//W3C//DTD SVG 20010904//EN"
 "http://www.w3.org/TR/2001/REC-SVG-20010904/DTD/svg10.dtd">
<svg version="1.0" xmlns="http://www.w3.org/2000/svg"
 width="1494.000000pt" height="1494.000000pt" viewBox="0 0 1494.000000 1494.000000"
 preserveAspectRatio="xMidYMid meet">

<g transform="translate(0.000000,1494.000000) scale(0.100000,-0.100000)"
fill="#000000" stroke="none">
<path d="M7135 14930 c-1652 -81 -3186 -674 -4435 -1715 -1944 -1621 -2928
-4067 -2649 -6585 167 -1502 794 -2921 1800 -4075 266 -306 697 -713 1025
-968 1062 -829 2310 -1349 3654 -1521 327 -42 477 -50 940 -50 486 0 626 8
1006 59 1847 250 3519 1176 4726 2617 908 1083 1494 2430 1673 3843 65 514 73
1185 19 1705 -239 2333 -1569 4422 -3585 5633 -1015 610 -2137 963 -3329 1046
-211 15 -649 21 -845 11z m735 -360 c1402 -79 2741 -566 3856 -1401 521 -390
1053 -922 1443 -1443 1065 -1422 1555 -3198 1375 -4981 -204 -2024 -1276
-3870 -2942 -5064 -991 -710 -2134 -1148 -3342 -1280 -327 -36 -505 -44 -900
-38 -408 5 -604 21 -985 78 -1333 201 -2630 815 -3640 1722 -251 225 -401 379
-642 657 -831 961 -1378 2099 -1613 3353 -137 732 -155 1533 -50 2292 189
1363 774 2638 1697 3697 147 170 520 540 688 684 1152 985 2500 1562 3985
1704 304 29 756 38 1070 20z"/>
<path d="M4967 13755 c-25 -53 -42 -158 -29 -181 9 -16 11 -13 8 18 -1 20 1
35 4 33 4 -2 7 13 8 35 1 22 9 58 18 80 20 51 14 62 -9 15z"/>
<path d="M4713 13613 c-13 -2 -23 -8 -23 -13 0 -11 -88 -51 -122 -56 -40 -5
-51 -13 -38 -29 11 -14 -11 -41 -24 -28 -4 4 -5 1 -1 -7 3 -8 -6 -28 -20 -44
-14 -16 -25 -35 -25 -42 0 -7 -9 -16 -20 -19 -11 -3 -20 -11 -20 -17 0 -5 -7
-8 -15 -4 -11 4 -15 -1 -15 -19 0 -13 -10 -31 -22 -39 -12 -9 -19 -19 -15 -22
3 -4 -4 -20 -17 -35 -14 -16 -22 -36 -19 -47 3 -11 -5 -28 -21 -43 -14 -13
-26 -30 -26 -36 0 -7 -7 -13 -15 -13 -8 0 -15 -7 -15 -15 0 -8 -14 -30 -31
-49 l-30 -35 25 -16 c66 -43 129 -59 246 -60 63 -1 125 1 136 6 20 7 42 44 79
134 7 17 29 66 48 110 19 44 41 98 47 120 7 22 16 45 20 50 10 14 21 60 30
130 8 60 6 64 -34 131 -4 6 -45 10 -63 7z m-130 -104 c-6 -6 -17 -8 -24 -3 -9
5 -8 9 7 14 23 9 31 3 17 -11z"/>
<path d="M10212 13444 c-29 -14 -52 -30 -52 -36 0 -6 7 -5 16 2 8 8 36 24 62
36 26 12 42 23 36 23 -5 1 -33 -11 -62 -25z"/>
<path d="M10721 13314 c-78 -21 -144 -60 -198 -118 -50 -53 -103 -128 -103
-145 0 -6 -8 -25 -18 -43 -10 -18 -28 -58 -41 -88 -13 -30 -32 -75 -43 -100
-25 -59 -32 -76 -53 -130 -30 -77 -47 -117 -89 -213 -14 -32 -26 -63 -26 -70
0 -7 -4 -17 -8 -22 -5 -6 -19 -39 -31 -75 -31 -89 -78 -185 -118 -243 -18 -26
-33 -50 -33 -53 0 -13 -94 -125 -166 -198 -194 -195 -438 -353 -657 -426 -37
-13 -65 -25 -62 -28 4 -5 93 -11 205 -16 47 -1 134 -21 150 -33 2 -2 -2 -8
-10 -13 -13 -9 -13 -10 0 -10 8 0 26 -12 39 -25 12 -14 27 -23 31 -20 5 3 11
-4 15 -15 4 -12 15 -20 28 -20 14 0 18 -3 10 -8 -7 -4 -9 -13 -4 -21 11 -16
34 -5 25 12 -4 7 -1 6 7 -2 11 -10 11 -15 2 -18 -7 -3 -13 -9 -13 -15 0 -6 7
-8 15 -4 18 7 20 -5 3 -23 -11 -11 -9 -12 9 -6 18 5 25 1 34 -19 10 -20 15
-23 26 -14 7 6 17 8 21 4 4 -4 -1 -14 -11 -21 -10 -7 -14 -16 -8 -19 5 -3 12
0 14 6 3 7 6 2 7 -12 1 -23 2 -23 9 -5 4 11 14 20 22 21 34 2 39 5 39 22 0 14
2 15 10 2 5 -9 5 -17 -1 -21 -5 -3 -7 -14 -3 -23 6 -15 3 -17 -14 -12 -11 4
-23 2 -27 -3 -3 -6 0 -8 8 -5 22 8 31 -28 11 -43 -16 -12 -12 -18 9 -14 5 1 6
-9 2 -21 -4 -16 -3 -19 3 -9 8 11 10 11 15 0 4 -11 6 -11 6 -1 1 7 6 10 13 6
6 -4 8 -3 5 2 -3 6 -2 16 4 24 7 13 9 13 9 1 0 -10 9 -6 28 12 15 14 54 49 87
77 33 29 76 66 95 84 70 62 213 171 221 168 5 -1 9 2 9 7 0 11 151 114 245
166 38 21 62 41 58 47 -3 7 -1 8 5 4 7 -4 45 8 85 27 65 31 117 54 187 84 25
10 24 10 -7 9 -17 -1 -29 -4 -27 -8 2 -3 -10 -11 -26 -17 -19 -6 -30 -6 -30 0
0 5 -10 7 -23 4 -17 -5 -24 -2 -24 9 0 17 4 18 50 18 15 1 27 5 27 9 0 5 -18
9 -40 9 -26 0 -40 5 -40 13 0 9 12 11 40 9 26 -3 40 0 40 8 0 7 -8 9 -20 5
-11 -4 -20 -2 -20 4 0 6 8 11 17 11 15 0 15 1 -1 13 -17 12 -17 14 -2 20 9 4
16 11 16 17 0 7 -9 5 -22 -4 -15 -11 -26 -12 -40 -5 -23 12 -24 32 0 27 16 -3
62 28 62 42 0 4 -10 6 -22 6 -18 -1 -22 4 -21 22 2 12 -1 22 -6 22 -5 0 -11 9
-14 20 -3 13 0 20 9 20 8 0 11 -6 7 -16 -10 -25 28 -13 55 19 13 15 21 34 18
42 -3 9 0 15 9 15 8 0 15 -7 15 -15 0 -10 10 -15 26 -15 l27 0 -27 26 c-14 15
-26 31 -26 35 0 15 33 48 43 42 5 -3 4 4 -2 16 -10 18 -9 21 9 21 11 0 20 -7
20 -14 0 -12 6 -13 33 -4 17 6 37 15 42 19 6 5 16 -1 23 -12 12 -19 15 -19 35
-6 16 10 57 15 140 16 65 1 126 5 135 7 15 5 15 4 2 -5 -13 -9 -13 -11 2 -11
9 0 19 4 22 8 3 5 33 9 68 10 44 1 58 -1 48 -8 -12 -8 -9 -10 12 -10 15 0 30
5 33 10 4 6 20 9 36 6 16 -2 29 0 29 6 0 7 14 8 35 5 19 -3 37 -1 40 4 7 11
66 2 80 -12 12 -12 25 -12 25 2 0 5 -4 7 -10 4 -5 -3 -10 -1 -10 4 0 6 3 11 8
12 4 0 16 2 27 5 11 2 30 5 42 6 12 1 24 10 26 19 3 9 18 20 34 23 16 4 37 17
47 31 10 13 24 21 32 18 8 -3 14 1 14 9 0 7 9 20 20 28 11 8 20 22 20 32 0 10
4 18 9 18 5 0 11 9 14 21 4 15 2 19 -8 15 -10 -3 -8 5 5 27 13 22 16 37 10 47
-9 13 -11 13 -20 0 -5 -8 -10 -10 -10 -5 1 6 7 19 15 29 20 26 19 36 -2 36
-14 0 -13 3 5 20 28 26 27 28 -3 52 -14 11 -25 29 -25 40 0 26 -49 96 -73 104
-10 3 -16 8 -13 11 6 7 -65 89 -74 86 -3 -1 -34 30 -69 68 -35 38 -70 69 -79
69 -8 0 -13 3 -9 6 11 11 -201 174 -218 168 -12 -5 -13 -10 -5 -20 7 -7 17
-11 24 -8 7 3 19 -3 27 -12 13 -16 12 -16 -8 -6 -16 9 -21 9 -19 -1 3 -22 67
-77 89 -77 19 0 20 -2 6 -15 -9 -9 -25 -17 -37 -18 -12 -1 -22 -5 -22 -10 0
-5 11 -7 25 -5 13 3 22 2 20 -3 -3 -4 -1 -10 5 -14 5 -3 10 -1 10 5 0 8 6 8
20 0 11 -6 20 -7 20 -1 0 5 7 12 16 15 8 3 13 2 10 -3 -3 -5 5 -12 18 -15 13
-3 26 -13 30 -21 3 -9 2 -13 -4 -10 -21 13 -49 -5 -46 -31 2 -17 -8 -37 -33
-63 -38 -40 -44 -42 -78 -23 -15 8 -23 9 -23 2 0 -5 -5 -10 -10 -10 -7 0 -7 6
-1 18 10 18 -10 58 -22 45 -4 -3 -1 -13 5 -22 8 -10 4 -9 -9 3 -18 15 -26 16
-37 7 -11 -10 -14 -9 -12 1 1 7 5 18 9 24 4 7 -2 14 -15 17 -27 7 -38 -1 -18
-13 11 -7 11 -13 2 -32 -7 -13 -11 -16 -8 -7 2 8 -5 26 -16 40 l-19 24 5 -35
c5 -27 4 -30 -3 -14 -13 29 -28 37 -35 19 -3 -8 -10 -15 -17 -15 -6 0 -9 7 -5
15 7 20 -24 51 -47 47 -9 -2 -17 -10 -17 -18 0 -8 -5 -12 -10 -9 -6 4 -8 11
-5 16 4 5 -1 9 -9 9 -18 0 -21 -16 -6 -25 6 -4 7 -11 4 -17 -5 -7 -10 -3 -15
10 -6 14 -14 20 -24 16 -10 -4 -15 -2 -13 6 2 7 -3 15 -9 17 -7 3 -13 -2 -13
-10 0 -8 7 -17 15 -21 8 -3 15 -9 15 -14 0 -12 -59 -44 -70 -37 -6 3 -10 1
-10 -4 0 -6 -5 -11 -12 -11 -8 0 -6 7 5 17 10 10 25 18 34 18 9 0 18 6 20 13
6 17 -22 15 -37 -3 -12 -14 -15 -14 -30 0 -13 12 -20 13 -25 5 -4 -7 -1 -16 6
-21 11 -7 12 -9 1 -9 -8 0 -23 10 -34 23 -11 12 -17 17 -14 11 4 -7 -3 -12
-17 -12 -12 0 -38 -2 -57 -5 -44 -6 -76 6 -83 32 -3 14 -11 19 -25 16 -16 -3
-19 1 -14 17 3 15 1 19 -9 16 -8 -2 -19 -25 -25 -50 -7 -25 -17 -54 -23 -66
-6 -11 -11 -31 -11 -43 0 -12 -3 -19 -7 -16 -9 10 -10 97 0 97 4 0 7 5 7 11 0
6 -6 9 -13 6 -14 -5 -15 -1 -18 48 -1 14 -6 25 -11 25 -6 0 -4 8 3 17 12 15
12 16 -3 10 -10 -3 -18 -2 -18 3 0 6 7 10 15 10 21 0 19 30 -2 31 -14 0 -13 2
5 9 12 5 22 16 22 25 0 8 5 15 12 15 6 0 8 3 5 7 -4 3 1 15 10 26 13 15 14 18
3 12 -13 -8 -13 -7 -1 8 7 9 21 17 30 18 10 0 11 2 4 6 -21 8 -16 45 5 41 19
-4 57 36 47 51 -3 5 -1 12 5 16 5 3 10 2 10 -3 0 -6 9 -8 20 -5 11 3 17 9 14
14 -3 5 -1 9 5 9 5 0 12 -6 15 -12 5 -10 7 -10 12 0 3 6 12 12 20 12 9 0 12 5
9 10 -3 6 -1 10 4 10 6 0 11 -7 11 -15 0 -8 5 -15 11 -15 6 0 8 7 5 16 -6 15
-1 16 36 9 24 -5 58 -8 76 -7 18 0 30 -4 27 -9 -3 -5 1 -6 9 -3 20 8 50 -22
40 -38 -6 -10 -3 -9 9 0 9 8 22 10 28 6 8 -4 9 -3 5 4 -5 8 1 12 14 12 13 0
19 -4 14 -12 -4 -7 -3 -8 4 -4 7 4 22 0 34 -8 24 -17 58 -21 58 -7 0 8 -32 22
-55 25 -5 1 -12 4 -15 7 -12 15 -112 52 -201 74 -110 28 -197 31 -278 9z m39
-114 c0 -5 -5 -10 -11 -10 -5 0 -7 5 -4 10 3 6 8 10 11 10 2 0 4 -4 4 -10z
m835 -230 c17 -18 17 -20 2 -14 -9 3 -17 11 -17 18 0 6 -5 4 -10 -4 -8 -13
-10 -12 -10 3 0 23 13 22 35 -3z m-375 -109 c0 -10 -7 -24 -15 -31 -16 -14
-45 -7 -45 11 0 6 6 9 14 6 8 -3 16 2 19 14 7 24 27 25 27 0z m403 -6 c-7 -21
-13 -19 -13 6 0 11 4 18 10 14 5 -3 7 -12 3 -20z m26 -12 c-25 -32 -49 -43
-49 -23 0 6 7 10 15 10 9 0 18 7 21 15 4 8 11 15 16 15 6 0 4 -8 -3 -17z
m-999 -39 c0 -15 -6 -24 -15 -24 -8 0 -15 5 -15 10 0 6 5 10 11 10 6 0 8 9 4
21 -5 15 -4 19 4 15 6 -4 11 -18 11 -32z m480 23 c0 -2 -10 -12 -22 -23 l-23
-19 19 23 c18 21 26 27 26 19z m-180 -11 c0 -3 -4 -8 -10 -11 -5 -3 -10 -1
-10 4 0 6 5 11 10 11 6 0 10 -2 10 -4z m460 -34 c0 -13 -3 -12 -15 4 -19 25
-19 40 0 24 8 -7 15 -20 15 -28z m267 32 c-3 -3 -12 -4 -19 -1 -8 3 -5 6 6 6
11 1 17 -2 13 -5z m-467 -14 c0 -5 -2 -10 -4 -10 -3 0 -8 5 -11 10 -3 6 -1 10
4 10 6 0 11 -4 11 -10z m370 -10 c0 -5 -4 -10 -10 -10 -5 0 -10 5 -10 10 0 6
5 10 10 10 6 0 10 -4 10 -10z m-207 -15 c-3 -9 -8 -14 -10 -11 -3 3 -2 9 2 15
9 16 15 13 8 -4z m-43 -5 c0 -5 -4 -10 -10 -10 -5 0 -10 5 -10 10 0 6 5 10 10
10 6 0 10 -4 10 -10z m440 -10 c0 -5 -4 -10 -10 -10 -5 0 -10 5 -10 10 0 6 5
10 10 10 6 0 10 -4 10 -10z m-1120 -10 c0 -5 -2 -10 -4 -10 -3 0 -8 5 -11 10
-3 6 -1 10 4 10 6 0 11 -4 11 -10z m925 1 c3 -5 1 -12 -4 -15 -5 -3 -11 1 -15
9 -6 16 9 21 19 6z m-95 -5 c0 -2 -7 -7 -16 -10 -8 -3 -12 -2 -9 4 6 10 25 14
25 6z m390 -66 c0 -5 -4 -10 -10 -10 -5 0 -10 5 -10 10 0 6 5 10 10 10 6 0 10
-4 10 -10z m-1239 -47 c-12 -20 -14 -14 -5 12 4 9 9 14 11 11 3 -2 0 -13 -6
-23z m1289 -9 c0 -16 -28 -26 -35 -13 -4 5 -1 8 6 7 6 -2 14 3 17 11 3 8 0 11
-7 7 -12 -8 -15 6 -4 17 7 8 23 -12 23 -29z m-50 7 c0 -6 -4 -12 -8 -15 -5 -3
-9 1 -9 9 0 8 4 15 9 15 4 0 8 -4 8 -9z m8 -56 c-3 -3 -9 2 -12 12 -6 14 -5
15 5 6 7 -7 10 -15 7 -18z m41 -6 c-22 -14 -33 -10 -19 6 7 8 17 12 22 9 6 -4
5 -10 -3 -15z m44 -34 c-8 -22 -22 -18 -16 5 3 11 9 17 14 15 4 -3 6 -12 2
-20z m-1303 -5 c6 -11 8 -20 6 -20 -3 0 -10 9 -16 20 -6 11 -8 20 -6 20 3 0
10 -9 16 -20z m4 -105 c-4 -8 -8 -15 -10 -15 -2 0 -4 7 -4 15 0 8 4 15 10 15
5 0 7 -7 4 -15z m86 -435 c0 -5 -5 -10 -11 -10 -5 0 -7 5 -4 10 3 6 8 10 11
10 2 0 4 -4 4 -10z m-20 -60 c0 -5 -4 -10 -10 -10 -5 0 -10 5 -10 10 0 6 5 10
10 10 6 0 10 -4 10 -10z m-55 -98 c-8 -8 -25 10 -19 20 4 6 9 5 15 -3 4 -7 6
-15 4 -17z m-15 -202 c0 -5 -5 -10 -11 -10 -5 0 -7 5 -4 10 3 6 8 10 11 10 2
0 4 -4 4 -10z m15 -29 c-6 -5 -21 -12 -35 -15 l-25 -7 25 15 c28 17 50 21 35
7z m-1002 -466 c-3 -9 -8 -14 -10 -11 -3 3 -2 9 2 15 9 16 15 13 8 -4z m117
-75 c0 -5 -2 -10 -4 -10 -3 0 -8 5 -11 10 -3 6 -1 10 4 10 6 0 11 -4 11 -10z"/>
<path d="M3932 13288 c-5 -7 -22 -37 -37 -67 -23 -47 -27 -64 -23 -125 6 -111
29 -150 193 -311 77 -77 190 -185 249 -240 122 -113 197 -216 253 -348 96
-225 120 -497 56 -625 -14 -26 -30 -39 -66 -53 -47 -17 -48 -17 -42 2 4 10 4
19 2 19 -2 0 -35 -21 -73 -46 -113 -77 -232 -123 -385 -149 -231 -40 -414
-123 -534 -240 -120 -117 -284 -336 -387 -515 -191 -333 -305 -716 -443 -1490
-24 -130 -25 -146 -10 -156 9 -7 13 -19 9 -30 -15 -50 28 39 47 96 12 36 43
112 69 170 66 148 105 270 145 459 44 203 49 221 120 401 156 395 331 677 550
888 96 93 106 106 100 131 -5 26 -3 28 47 40 120 31 331 119 625 262 112 55
206 99 211 99 5 0 18 14 30 30 19 25 30 30 63 30 31 0 40 -3 36 -14 -4 -10 12
-7 56 11 34 14 64 28 67 32 3 3 17 12 33 20 15 8 27 18 27 23 0 4 7 8 15 8 8
0 15 7 15 15 0 8 6 15 14 15 8 0 22 8 32 17 9 10 24 18 32 19 26 4 87 61 85
80 -2 28 15 54 37 54 10 0 21 4 24 9 8 12 -20 22 -39 15 -8 -4 -23 -3 -32 1
-21 9 -30 11 -61 13 -13 1 -21 6 -17 11 3 6 -4 15 -15 21 -11 6 -18 15 -15 20
3 5 -4 15 -16 24 -12 8 -18 19 -15 24 3 6 1 23 -4 38 -8 19 -8 30 0 38 13 13
13 26 -1 26 -5 0 -7 -5 -3 -12 5 -7 3 -8 -5 -3 -7 4 -11 15 -8 25 3 11 -1 21
-10 24 -11 5 -12 10 -3 27 7 12 9 32 4 47 -4 15 -6 32 -5 38 1 7 -8 33 -19 59
-21 50 -26 90 -10 80 6 -4 8 -10 5 -15 -3 -5 -1 -11 4 -15 6 -3 7 -13 4 -21
-5 -13 -1 -15 15 -9 18 5 22 2 22 -15 0 -13 -4 -19 -11 -14 -6 3 -3 -5 6 -20
19 -28 27 -33 24 -13 -4 33 2 49 17 43 9 -4 13 -2 8 5 -10 17 -42 145 -59 239
-16 85 -34 116 -77 133 -10 3 -18 16 -18 27 0 16 -7 20 -30 20 -39 0 -140 72
-140 100 0 12 -8 20 -22 22 -13 2 -22 9 -21 16 2 6 -3 12 -10 12 -7 0 -20 11
-30 23 -15 21 -23 23 -63 17 -62 -10 -205 5 -258 26 -15 6 -17 4 -11 -6 6 -10
1 -12 -22 -7 -17 3 -34 2 -39 -3 -20 -20 -129 57 -147 104 -4 9 -14 16 -24 16
-11 0 -30 20 -48 50 -16 28 -33 50 -37 50 -4 0 -8 13 -8 28 0 15 -4 32 -10 38
-9 9 5 77 25 127 8 20 2 22 -13 5z m944 -874 c-3 -9 0 -11 12 -7 14 6 15 5 2
-9 -19 -20 -30 -14 -30 18 0 15 4 23 11 19 6 -4 8 -13 5 -21z"/>
<path d="M10937 13249 c7 -7 15 -10 18 -7 3 3 -2 9 -12 12 -14 6 -15 5 -6 -5z"/>
<path d="M11046 13185 c-3 -8 -1 -15 4 -15 6 0 10 7 10 15 0 8 -2 15 -4 15 -2
0 -6 -7 -10 -15z"/>
<path d="M11125 13180 c3 -5 11 -10 16 -10 6 0 7 5 4 10 -3 6 -11 10 -16 10
-6 0 -7 -4 -4 -10z"/>
<path d="M11280 13181 c0 -6 5 -13 12 -17 7 -4 8 -3 4 4 -14 23 5 12 35 -20
17 -18 28 -26 24 -18 -4 9 0 7 9 -3 10 -14 19 -16 31 -10 15 9 15 11 1 23 -9
7 -27 13 -41 13 -13 0 -22 3 -20 8 3 4 -3 13 -14 18 -24 14 -41 14 -41 2z"/>
<path d="M11080 13170 c0 -5 5 -10 10 -10 6 0 10 5 10 10 0 6 -4 10 -10 10 -5
0 -10 -4 -10 -10z"/>
<path d="M11165 13170 c3 -5 11 -10 16 -10 6 0 7 5 4 10 -3 6 -11 10 -16 10
-6 0 -7 -4 -4 -10z"/>
<path d="M11220 13132 c0 -12 19 -26 26 -19 2 2 -2 10 -11 17 -9 8 -15 8 -15
2z"/>
<path d="M11277 13069 c4 -13 8 -18 11 -10 2 7 -1 18 -6 23 -8 8 -9 4 -5 -13z"/>
<path d="M11312 13070 c7 -11 17 -20 22 -20 5 0 1 9 -9 20 -10 11 -20 20 -22
20 -2 0 2 -9 9 -20z"/>
<path d="M11385 13080 c3 -5 11 -10 16 -10 6 0 7 5 4 10 -3 6 -11 10 -16 10
-6 0 -7 -4 -4 -10z"/>
<path d="M11196 13061 c-4 -5 -2 -12 3 -15 5 -4 12 -2 15 3 4 5 2 12 -3 15 -5
4 -12 2 -15 -3z"/>
<path d="M11367 13046 c-4 -10 0 -12 14 -9 22 6 26 23 5 23 -8 0 -16 -6 -19
-14z"/>
<path d="M10675 13030 c3 -5 10 -10 16 -10 5 0 9 5 9 10 0 6 -7 10 -16 10 -8
0 -12 -4 -9 -10z"/>
<path d="M11304 13016 c-15 -12 -17 -17 -6 -27 10 -11 12 -10 12 3 0 9 6 18
13 21 6 2 9 7 6 11 -3 3 -14 -1 -25 -8z"/>
<path d="M11080 13010 c0 -5 5 -10 10 -10 6 0 10 5 10 10 0 6 -4 10 -10 10 -5
0 -10 -4 -10 -10z"/>
<path d="M11410 13000 c0 -5 5 -10 11 -10 5 0 7 5 4 10 -3 6 -8 10 -11 10 -2
0 -4 -4 -4 -10z"/>
<path d="M11035 12990 c-3 -5 -1 -10 4 -10 6 0 11 5 11 10 0 6 -2 10 -4 10 -3
0 -8 -4 -11 -10z"/>
<path d="M11236 12984 c-5 -13 -2 -15 13 -11 16 4 21 -3 29 -32 6 -20 10 -28
11 -19 1 9 10 18 21 20 22 3 28 23 7 24 -6 0 -26 8 -44 17 -28 15 -32 15 -37
1z"/>
<path d="M11456 12991 c-4 -7 -5 -15 -2 -18 9 -9 19 4 14 18 -4 11 -6 11 -12
0z"/>
<path d="M11107 12970 c-7 -27 11 -36 27 -14 7 9 18 14 24 10 7 -4 12 -1 12 8
0 18 -16 21 -25 6 -5 -8 -11 -8 -20 0 -9 8 -14 5 -18 -10z"/>
<path d="M11348 12983 c6 -2 18 -2 25 0 6 3 1 5 -13 5 -14 0 -19 -2 -12 -5z"/>
<path d="M11146 12934 c-3 -9 -6 -17 -6 -18 0 -2 13 -3 30 -2 16 1 28 6 27 11
-2 6 -8 10 -13 10 -5 0 -14 4 -20 8 -7 4 -15 0 -18 -9z"/>
<path d="M11210 12936 c0 -8 4 -17 9 -20 10 -7 23 19 14 28 -11 11 -23 6 -23
-8z"/>
<path d="M10683 12925 c-10 -10 -9 -16 4 -27 14 -11 16 -11 9 1 -5 8 -4 16 4
21 7 4 8 10 4 13 -5 3 -14 -1 -21 -8z"/>
<path d="M11325 12920 c-3 -5 -1 -10 4 -10 6 0 11 5 11 10 0 6 -2 10 -4 10 -3
0 -8 -4 -11 -10z"/>
<path d="M11405 12920 c3 -5 8 -10 11 -10 2 0 4 5 4 10 0 6 -5 10 -11 10 -5 0
-7 -4 -4 -10z"/>
<path d="M11430 12920 c0 -5 7 -10 16 -10 8 0 12 5 9 10 -3 6 -10 10 -16 10
-5 0 -9 -4 -9 -10z"/>
<path d="M11005 12910 c-3 -5 -1 -10 4 -10 6 0 11 5 11 10 0 6 -2 10 -4 10 -3
0 -8 -4 -11 -10z"/>
<path d="M11570 12910 c0 -5 4 -10 9 -10 6 0 13 5 16 10 3 6 -1 10 -9 10 -9 0
-16 -4 -16 -10z"/>
<path d="M11245 12900 c-3 -5 -1 -10 4 -10 6 0 11 5 11 10 0 6 -2 10 -4 10 -3
0 -8 -4 -11 -10z"/>
<path d="M11470 12900 c0 -12 28 -21 35 -11 2 5 -4 11 -15 14 -11 3 -20 2 -20
-3z"/>
<path d="M11533 12883 c0 -18 5 -29 9 -25 5 5 4 19 -1 33 -10 23 -10 22 -8 -8z"/>
<path d="M11375 12890 c-3 -5 -1 -10 4 -10 6 0 11 5 11 10 0 6 -2 10 -4 10 -3
0 -8 -4 -11 -10z"/>
<path d="M10903 12876 c-33 -16 -28 -27 7 -15 17 6 30 15 30 20 0 11 -8 10
-37 -5z"/>
<path d="M11420 12880 c-24 -15 -7 -18 20 -3 14 7 18 13 10 13 -8 0 -22 -4
-30 -10z"/>
<path d="M11485 12840 c3 -5 11 -10 16 -10 6 0 7 5 4 10 -3 6 -11 10 -16 10
-6 0 -7 -4 -4 -10z"/>
<path d="M11541 12843 c-7 -3 -22 -14 -32 -24 -19 -19 -19 -19 0 -19 10 0 22
7 25 16 3 8 10 13 15 10 5 -3 11 1 15 9 6 16 1 17 -23 8z"/>
<path d="M11990 12510 c-6 -11 -7 -20 -2 -20 6 0 12 9 15 20 3 11 3 20 1 20
-2 0 -8 -9 -14 -20z"/>
<path d="M11985 12470 c-3 -5 -2 -10 4 -10 5 0 13 5 16 10 3 6 2 10 -4 10 -5
0 -13 -4 -16 -10z"/>
<path d="M12036 12425 c4 -8 8 -15 10 -15 2 0 4 7 4 15 0 8 -4 15 -10 15 -5 0
-7 -7 -4 -15z"/>
<path d="M12041 12384 c0 -11 3 -14 6 -6 3 7 2 16 -1 19 -3 4 -6 -2 -5 -13z"/>
<path d="M12041 12344 c0 -11 3 -14 6 -6 3 7 2 16 -1 19 -3 4 -6 -2 -5 -13z"/>
<path d="M12042 12300 c0 -14 2 -19 5 -12 2 6 2 18 0 25 -3 6 -5 1 -5 -13z"/>
<path d="M5001 12193 c-1 -21 7 -40 22 -54 15 -15 18 -23 10 -26 -7 -3 -13 -9
-13 -15 0 -6 7 -7 16 -4 11 4 14 1 9 -13 -3 -12 0 -21 10 -25 19 -7 15 12 -14
79 -10 22 -23 51 -29 65 -11 25 -11 25 -11 -7z"/>
<path d="M8040 12199 c-36 -5 -180 -25 -320 -44 -140 -19 -320 -44 -400 -54
-80 -11 -133 -20 -118 -20 33 -1 48 -21 16 -22 -46 -2 47 -17 177 -29 87 -8
216 -9 393 -5 l262 8 45 82 c25 45 45 85 45 89 0 7 -13 7 -100 -5z"/>
<path d="M11805 12160 c-3 -6 1 -7 9 -4 18 7 21 14 7 14 -6 0 -13 -4 -16 -10z"/>
<path d="M11966 12122 l-19 -27 24 22 c12 12 21 24 18 27 -2 2 -13 -8 -23 -22z"/>
<path d="M10935 12060 c-3 -5 -1 -10 4 -10 6 0 11 5 11 10 0 6 -2 10 -4 10 -3
0 -8 -4 -11 -10z"/>
<path d="M11859 12023 c-13 -17 -13 -17 6 -3 11 8 22 16 24 17 2 2 0 3 -6 3
-6 0 -17 -8 -24 -17z"/>
<path d="M10860 12010 c0 -5 4 -10 9 -10 6 0 13 5 16 10 3 6 -1 10 -9 10 -9 0
-16 -4 -16 -10z"/>
<path d="M10867 11955 c3 -8 9 -12 14 -9 12 7 11 11 -5 17 -10 4 -13 1 -9 -8z"/>
<path d="M11755 11960 c-3 -6 1 -7 9 -4 18 7 21 14 7 14 -6 0 -13 -4 -16 -10z"/>
<path d="M11715 11940 c-3 -6 1 -7 9 -4 18 7 21 14 7 14 -6 0 -13 -4 -16 -10z"/>
<path d="M11590 11895 c-19 -7 -28 -14 -20 -14 8 0 29 6 45 14 39 17 21 18
-25 0z"/>
<path d="M10740 11872 c0 -5 7 -13 16 -16 22 -8 24 -8 24 6 0 6 -3 8 -7 5 -3
-4 -12 -2 -20 4 -8 7 -13 8 -13 1z"/>
<path d="M11504 11864 c-18 -14 -18 -15 4 -4 12 6 22 13 22 15 0 8 -5 6 -26
-11z"/>
<path d="M11420 11840 c-9 -6 -10 -10 -3 -10 6 0 15 5 18 10 8 12 4 12 -15 0z"/>
<path d="M11388 11835 c-3 -3 -16 -8 -29 -11 -27 -6 -28 -6 -88 -23 -23 -7
-41 -14 -39 -16 2 -2 28 3 58 11 30 8 64 17 74 19 18 4 47 25 35 25 -3 0 -8
-2 -11 -5z"/>
<path d="M5212 11817 c-24 -11 -30 -27 -9 -27 6 1 25 7 42 14 26 11 27 13 10
18 -11 3 -30 0 -43 -5z"/>
<path d="M11200 11780 c-9 -6 -10 -10 -3 -10 6 0 15 5 18 10 8 12 4 12 -15 0z"/>
<path d="M11160 11770 c-9 -6 -10 -10 -3 -10 6 0 15 5 18 10 8 12 4 12 -15 0z"/>
<path d="M10755 11760 c-3 -5 -1 -10 4 -10 6 0 11 5 11 10 0 6 -2 10 -4 10 -3
0 -8 -4 -11 -10z"/>
<path d="M11105 11750 c-3 -6 1 -7 9 -4 18 7 21 14 7 14 -6 0 -13 -4 -16 -10z"/>
<path d="M11030 11730 c-9 -6 -10 -10 -3 -10 6 0 15 5 18 10 8 12 4 12 -15 0z"/>
<path d="M10975 11710 c-3 -6 1 -7 9 -4 18 7 21 14 7 14 -6 0 -13 -4 -16 -10z"/>
<path d="M10910 11694 c-25 -9 -49 -20 -54 -25 -6 -5 14 -1 42 9 29 10 55 22
59 25 9 9 5 9 -47 -9z"/>
<path d="M11045 10941 c5 -16 4 -21 -4 -17 -24 15 -8 -22 40 -94 28 -41 49
-68 46 -60 -27 83 -103 243 -82 171z"/>
<path d="M11103 10693 c-13 -2 -23 -6 -23 -8 0 -2 43 -110 96 -242 53 -131
112 -281 131 -333 71 -195 122 -444 123 -593 0 -37 7 -122 15 -190 8 -67 21
-192 30 -278 18 -189 43 -312 89 -442 19 -54 40 -136 47 -183 11 -78 14 -84
25 -62 7 13 13 18 14 11 1 -56 28 -190 61 -302 42 -147 59 -194 167 -461 96
-235 154 -449 177 -642 4 -32 10 -58 14 -58 4 0 17 7 30 17 l24 16 -7 -56 c-7
-52 -6 -57 12 -57 31 0 32 -10 7 -49 -31 -45 -31 -62 -1 -98 34 -41 60 -97 90
-194 14 -47 35 -98 47 -113 20 -25 22 -44 28 -207 l7 -179 38 -32 c58 -48 68
-81 77 -268 5 -117 14 -185 28 -234 11 -38 23 -72 27 -75 8 -8 -4 221 -22 419
-17 183 -59 412 -103 571 -16 57 -70 217 -119 354 -148 416 -198 597 -237 856
-24 165 -52 297 -54 255 -1 -31 -15 -7 -35 59 -10 33 -55 155 -101 270 -154
391 -182 520 -210 985 -30 505 -80 735 -219 1005 -28 55 -90 200 -136 323 -61
160 -89 222 -100 221 -8 -1 -25 -4 -37 -6z"/>
<path d="M10844 10299 c-16 -16 -57 -44 -91 -61 -39 -19 -71 -43 -87 -67 -21
-29 -41 -42 -106 -66 -44 -16 -80 -34 -80 -40 0 -5 -13 -17 -29 -27 -126 -71
-74 -269 127 -480 40 -42 94 -91 121 -109 48 -33 48 -34 50 -93 1 -32 4 -63 8
-69 8 -14 82 1 119 24 64 39 101 179 88 333 l-7 78 -45 -6 c-25 -3 -56 -13
-69 -21 -29 -20 -29 -16 6 53 51 101 83 218 88 325 3 53 2 97 -3 97 -5 0 -23
-9 -40 -19 l-31 -19 13 37 c14 40 19 161 6 161 -5 0 -21 -14 -38 -31z"/>
<path d="M4745 10295 c-16 -8 -48 -17 -70 -21 l-40 -6 40 -18 c59 -26 134
-105 169 -180 28 -59 31 -74 31 -167 0 -57 1 -103 1 -103 10 0 89 141 100 176
22 72 19 81 -24 87 -55 9 -122 84 -122 136 0 14 6 21 20 21 13 0 20 7 20 20 0
11 -5 20 -11 20 -5 0 -8 4 -4 9 3 6 -10 13 -30 17 -19 3 -35 10 -35 15 0 12
-9 11 -45 -6z"/>
<path d="M4375 10252 c-124 -61 -181 -126 -267 -301 -48 -97 -53 -113 -56
-188 -8 -164 67 -314 193 -388 86 -50 169 -31 311 71 40 29 83 56 96 60 77 24
131 87 180 210 29 70 32 90 33 180 0 96 -2 103 -38 176 -41 84 -89 133 -172
176 -39 20 -68 26 -135 29 -78 4 -90 2 -145 -25z m133 -169 c2 -33 7 -43 21
-43 10 0 28 -12 42 -26 l24 -26 -24 -19 c-19 -16 -33 -18 -67 -13 -41 6 -44 4
-99 -50 l-57 -56 -10 -102 c-19 -207 -88 -248 -166 -98 -32 62 -34 69 -30 150
7 128 34 171 166 259 83 56 120 71 162 68 34 -2 35 -4 38 -44z m296 -44 c37
-29 36 -81 -3 -120 -35 -34 -59 -36 -94 -9 -33 26 -40 60 -22 103 22 52 72 63
119 26z"/>
<path d="M7170 9779 c-132 -19 -216 -69 -335 -200 -73 -80 -100 -95 -158 -84
-37 7 -44 2 -129 -114 -21 -28 -51 -53 -83 -68 -73 -35 -78 -38 -88 -55 -18
-27 3 -70 64 -128 57 -55 67 -75 60 -127 -3 -20 27 -15 49 7 24 24 30 25 30 5
0 -29 73 -95 144 -130 118 -59 238 -79 461 -78 287 0 354 19 541 148 99 69
188 158 249 250 38 58 74 142 75 177 0 32 -257 217 -405 291 -174 86 -347 125
-475 106z m245 -132 c30 -22 11 -62 -63 -135 -75 -73 -157 -124 -206 -126 -28
-1 -32 -6 -44 -51 -40 -153 54 -340 196 -390 122 -43 119 -50 -29 -65 -108
-11 -242 -2 -318 20 -75 21 -146 87 -170 159 -26 79 -6 199 52 300 38 69 143
180 208 221 63 41 164 73 209 67 19 -3 44 -1 55 3 31 13 89 11 110 -3z"/>
<path d="M2657 8908 c-9 -31 -2 -33 11 -3 6 14 8 25 3 25 -5 0 -11 -10 -14
-22z"/>
<path d="M3876 8589 c-176 -29 -328 -138 -366 -262 -7 -23 -21 -68 -32 -99
-10 -32 -23 -93 -29 -135 -15 -114 -36 -223 -69 -353 -48 -191 -81 -388 -82
-490 -2 -120 17 -171 117 -320 110 -164 125 -201 140 -349 17 -178 34 -206
205 -336 41 -31 122 -106 179 -166 57 -61 122 -119 145 -131 22 -11 92 -68
153 -125 l113 -105 17 32 c50 92 75 102 184 79 50 -11 52 -11 74 17 l22 28 40
-18 c22 -10 56 -16 77 -14 36 3 38 6 55 56 36 104 112 152 209 132 43 -10 50
-15 55 -40 7 -30 9 -31 142 -46 47 -5 65 -13 88 -35 16 -16 32 -29 36 -29 15
0 41 36 41 56 0 11 15 35 34 53 19 19 50 56 68 82 30 44 37 49 71 49 41 0 100
-21 112 -40 4 -7 0 -19 -8 -28 -14 -14 -12 -21 29 -74 25 -32 53 -59 62 -59 9
-1 76 -3 147 -3 109 -1 140 -5 190 -24 33 -12 80 -25 104 -28 38 -5 43 -3 37
11 -5 13 -2 15 15 10 15 -5 29 1 48 19 16 16 46 29 76 35 52 10 75 30 75 68 0
18 -7 25 -30 30 -16 3 -30 8 -30 11 0 3 40 47 90 97 118 121 151 198 121 278
-8 20 -5 29 15 48 l24 23 -27 28 c-74 77 -257 94 -493 45 -69 -14 -195 -49
-280 -77 -369 -122 -417 -121 -703 10 -142 65 -155 73 -199 127 -41 49 -118
178 -118 197 0 3 16 12 35 20 38 16 54 41 37 58 -5 5 -31 11 -57 13 -25 2 -48
5 -50 6 -2 2 -10 37 -19 78 l-15 75 30 33 c37 43 37 60 -1 68 -30 6 -30 7 -30
72 0 72 11 79 45 25 24 -37 35 -38 95 -11 l45 21 -30 23 c-16 14 -51 30 -78
37 l-48 12 35 18 c20 10 36 22 36 27 0 5 -14 21 -30 35 -30 25 -30 25 -14 59
l17 35 31 -19 c37 -23 76 -25 76 -5 0 8 -4 18 -10 21 -16 10 -12 23 10 30 16
5 19 12 14 28 -4 17 1 14 24 -13 29 -34 31 -34 49 -17 16 16 18 34 16 172 -2
138 0 160 19 203 70 158 60 273 -29 332 -21 13 -61 45 -90 71 -116 104 -419
219 -680 258 -82 13 -304 13 -377 0z m1054 -968 c0 -8 -52 -32 -58 -27 -2 2 4
19 14 37 16 31 17 32 30 14 8 -10 14 -21 14 -24z"/>
<path d="M5447 7563 c-20 -11 -26 -18 -18 -26 6 -6 7 -16 1 -28 -15 -28 8 -34
34 -10 12 12 30 21 39 21 16 0 37 28 37 49 0 16 -60 12 -93 -6z"/>
<path d="M5236 7472 c-3 -5 4 -23 14 -40 31 -50 67 -23 40 29 -11 19 -44 26
-54 11z"/>
<path d="M5043 7362 c-6 -4 -15 -20 -19 -35 -6 -26 -4 -28 17 -25 19 2 25 10
27 36 3 32 -3 38 -25 24z"/>
<path d="M5340 7173 c-35 -5 -90 -37 -90 -54 0 -11 53 -11 101 0 31 7 79 41
79 56 0 5 -33 4 -90 -2z"/>
<path d="M5094 7115 c-18 -14 -18 -14 4 -15 15 0 26 -7 29 -20 4 -14 14 -20
32 -20 40 0 55 14 47 44 -6 23 -11 26 -49 26 -24 0 -52 -7 -63 -15z"/>
<path d="M4877 7114 c-3 -4 0 -16 8 -28 8 -11 15 -33 15 -49 0 -16 7 -30 15
-34 21 -8 55 25 55 53 0 35 -71 79 -93 58z"/>
<path d="M5015 6888 c-36 -19 -65 -51 -65 -70 0 -14 8 -18 39 -18 55 0 84 26
75 68 -7 34 -17 38 -49 20z"/>
<path d="M5207 6826 c-16 -23 -15 -24 9 -30 47 -12 103 16 83 40 -19 24 -75
17 -92 -10z"/>
<path d="M5095 6702 c-14 -9 -17 -50 -4 -58 6 -3 21 -3 35 0 24 6 24 7 9 36
-16 31 -23 35 -40 22z"/>
<path d="M11458 6108 c-14 -30 -61 -101 -103 -157 -198 -262 -532 -566 -959
-873 l-160 -114 -63 -103 c-35 -57 -63 -104 -63 -106 0 -1 20 -8 45 -15 25 -7
45 -18 45 -25 0 -7 -11 -43 -25 -80 -14 -37 -24 -69 -22 -71 14 -14 228 107
335 190 39 31 72 52 72 47 0 -13 -80 -191 -172 -381 -102 -210 -152 -287 -268
-405 -85 -88 -102 -115 -116 -185 l-6 -35 23 21 c13 12 107 77 209 144 102 68
221 151 265 185 166 129 327 319 409 482 39 78 167 243 241 311 l65 60 -60
-13 c-33 -7 -60 -9 -60 -5 0 3 20 42 45 86 58 101 97 223 93 291 l-3 51 -74
-29 c-40 -17 -76 -27 -79 -25 -10 11 31 137 62 188 17 29 60 87 95 128 112
133 208 292 245 407 25 77 16 95 -16 31z"/>
<path d="M4290 1815 c-13 -14 -19 -25 -14 -25 11 0 47 40 41 46 -2 2 -14 -7
-27 -21z"/>
<path d="M4096 1701 c-4 -7 -5 -15 -2 -18 9 -9 19 4 14 18 -4 11 -6 11 -12 0z"/>
</g>
</svg>
